<svg xmlns="http://www.w3.org/2000/svg" viewBox="0 0 295 87"><defs><style>.cls-1,.cls-7{fill:#fff;}.cls-1{stroke:#8fb45d;stroke-miterlimit:10;stroke-width:3px;}.cls-2{font-size:24px;fill:#83ac4d;font-family:Gotham-BlackItalic, Gotham;font-style:italic;}.cls-3{letter-spacing:-0.09em;}.cls-4{letter-spacing:-0.08em;}.cls-5{letter-spacing:0em;}.cls-6{fill:#87b754;}</style></defs><title>Rekeying Available</title><g id="Layer_2" data-name="Layer 2"><g id="Layer_1-2" data-name="Layer 1"><rect class="cls-1" x="1.5" y="1.5" width="292" height="84" rx="12" ry="12"/><text class="cls-2" transform="translate(113.38 39.38)">REKEYING <tspan class="cls-3"><tspan x="0" y="24">A</tspan><tspan class="cls-4" x="16.44" y="24">V</tspan><tspan class="cls-5" x="32.26" y="24">AILABLE</tspan></tspan></text><path class="cls-6" d="M67.72,40.46a21.13,21.13,0,0,1-2.33-6.29A19.63,19.63,0,1,1,78.06,49a.82.82,0,0,0-1,.26c-1.77,1.8-3.56,3.57-5.34,5.35-.82.82-1.21.81-2,0-.31-.31-.61-.64-.9-.94-1.46.83-2,1.94-1.32,3.57a3.62,3.62,0,0,1-.91,0c-1-.31-1.64.17-2.39.82a4.35,4.35,0,0,0-1.54,3.42,2.44,2.44,0,0,1-.52,1.14c-.86,1.29-2.28,1.66-3.64,2.06a4.34,4.34,0,0,0-2.28,1.42,4,4,0,0,1-.52.52c-1,.9-2,1.81-.88,3.41a17.21,17.21,0,0,0-2.09.23,2.67,2.67,0,0,0-1.25.63,3.81,3.81,0,0,1-2.51,1.33c-2.61.23-5.2.61-7.79.95a.66.66,0,0,1-.84-.47c-.36-.89-.74-1.78-1.17-2.64a.89.89,0,0,1,.23-1.21q8.17-8.13,16.32-16.3L67.35,40.86ZM92.09,27.8a4.66,4.66,0,1,0-4.67-4.67A4.69,4.69,0,0,0,92.09,27.8ZM69.79,43.57,44.16,69.19l.37.33L70.09,44Z"/><path class="cls-7" d="M92.09,27.8a4.66,4.66,0,1,1,4.68-4.65A4.7,4.7,0,0,1,92.09,27.8Z"/><path class="cls-7" d="M69.79,43.57l.3.4L44.53,69.53l-.37-.33Z"/></g></g></svg>