<svg xmlns="http://www.w3.org/2000/svg" viewBox="0 0 295 87"><defs><style>.cls-1{fill:#fff;stroke:#8fb45d;stroke-miterlimit:10;stroke-width:3px;}.cls-2{font-size:37.45px;}.cls-2,.cls-3{fill:#87b754;font-family:Gotham-Black, Gotham;}.cls-3{font-size:25.69px;}.cls-4{letter-spacing:-0.01em;}.cls-5{letter-spacing:-0.09em;}.cls-6{letter-spacing:0em;}.cls-7{fill:#8fb45d;}</style></defs><title>10C Fire Rated</title><g id="Layer_2" data-name="Layer 2"><g id="Layer_1-2" data-name="Layer 1"><rect class="cls-1" x="1.5" y="1.5" width="292" height="84" rx="12" ry="12"/><text class="cls-2" transform="translate(103.5 43.15)">10C</text><text class="cls-3" transform="translate(100.5 71.47)">FIRE <tspan class="cls-4" x="67.77" y="0">R</tspan><tspan class="cls-5" x="85.94" y="0">A</tspan><tspan class="cls-6" x="104.05" y="0">TED</tspan></text><g id="m0PJiN.tif"><path class="cls-7" d="M83.6,42.92v1.26a3.65,3.65,0,0,0-.11.45c-.2,1.71-.27,3.45-.6,5.13a32,32,0,1,1-19-35.69c10.86,4.63,17.26,13,19.27,24.66C83.36,40.11,83.44,41.52,83.6,42.92Zm-58.5.62A26.36,26.36,0,1,0,51.45,17.19,26.36,26.36,0,0,0,25.09,43.54Z"/><path class="cls-7" d="M35.86,26.51h5.63c0,.34,0,.64,0,.95,0,5.73,0,11.45,0,17.18a4.17,4.17,0,0,0,.29,1.59,1.74,1.74,0,0,0,1.78,1A1.79,1.79,0,0,0,45.29,46a4.12,4.12,0,0,0,.19-1.31q0-8.59,0-17.18v-1h5.64c0,.31.05.61.05.91q0,8.55,0,17.1c0,4.28-2.54,7-6.84,7.14a13,13,0,0,1-3.64-.34,6.12,6.12,0,0,1-4.87-6.14c-.07-6.14,0-12.29,0-18.43A1.27,1.27,0,0,1,35.86,26.51Z"/><path class="cls-7" d="M55.23,60.88V36h5.62V55.55h6.73v5.33Z"/></g></g></g></svg>