<svg xmlns="http://www.w3.org/2000/svg" viewBox="0 0 295 87"><defs><style>.cls-1{fill:#fff;stroke:#8fb45d;stroke-miterlimit:10;stroke-width:3px;}.cls-2{font-size:36px;fill:#83ac4d;font-family:Gotham-Black, Gotham;}.cls-3{letter-spacing:-0.05em;}.cls-4{fill:#87b754;}</style></defs><title>ADA</title><g id="Layer_2" data-name="Layer 2"><g id="Layer_1-2" data-name="Layer 1"><rect class="cls-1" x="1.5" y="1.5" width="292" height="84" rx="12" ry="12"/><text class="cls-2" transform="translate(133 55.69)">A<tspan class="cls-3" x="28.62" y="0">D</tspan><tspan x="54.36" y="0">A</tspan></text><path class="cls-4" d="M123.52,56l-3.6,1.62-5.05-11.22-.49-1.08-1.19,0-10.92.16-.1-2.33h9.05V39.51H102L101.7,32a3.85,3.85,0,1,0-3.64-.32l.66,15.71.07,1.76,1.76,0L112,49l5.31,11.77.74,1.65,1.65-.74L125,59.28,123.52,56Z"/><path class="cls-4" d="M112.26,45.19l-.49-.12A9.72,9.72,0,1,1,97,34.66l-.46-3.15-.32-.61a13.34,13.34,0,1,0,17.95,18l-1.89-3.75Z"/></g></g></svg>