<svg xmlns="http://www.w3.org/2000/svg" xmlns:xlink="http://www.w3.org/1999/xlink" viewBox="0 0 327.53 106.5"><defs><style>.cls-1{fill:none;}.cls-2,.cls-4{fill:#fff;}.cls-2{stroke:#8fb45d;stroke-miterlimit:10;stroke-width:3px;}.cls-3{clip-path:url(#clip-path);}.cls-5{font-size:20px;fill:#83ac4d;font-family:Gotham-BlackItalic, Gotham;font-style:italic;}.cls-6{letter-spacing:-0.09em;}.cls-7{letter-spacing:0em;}.cls-8{letter-spacing:0em;}.cls-9{letter-spacing:-0.09em;}.cls-10{letter-spacing:-0.08em;}</style><clipPath id="clip-path"><rect class="cls-1" x="34.03" y="21" width="292" height="84" rx="12" ry="12"/></clipPath></defs><title>Drive in door Latch</title><g id="Layer_2" data-name="Layer 2"><g id="Layer_1-2" data-name="Layer 1"><rect class="cls-2" x="34.03" y="21" width="292" height="84" rx="12" ry="12"/><g class="cls-3"><path class="cls-2" d="M63.88,31A42.43,42.43,0,0,1,70,33.28C80.08,39,90.12,44.83,100.17,50.65A49.91,49.91,0,0,1,105,53.8a2.75,2.75,0,0,1,1,1.81c.49,7,1.15,13.93,1.19,20.9,0,2.9-1.09,5.9-2.11,8.7-.92,2.52-2.55,2.86-4.85,1.54-1.69-1-3.41-1.91-5.06-2.94-2.27-1.42-4.47-2.65-7.4-2.08A6.17,6.17,0,0,1,84,80.66q-15.94-9.09-31.8-18.32c-7.95-4.63-15.83-9.37-23.77-14-4-2.37-8.1-4.7-12.22-6.92-2.07-1.12-4.32-1.89-6.44-2.93C4.66,35.94,1.41,32.06,1.5,26.1c.08-5.21.24-10.42.67-15.61C2.4,7.64,4.31,5.93,6.68,4.12,11.73.26,15.75,1,20.89,4.2c12.61,7.89,25.64,15.12,38.52,22.57.62.36,1.74.09,2.13.54A27.5,27.5,0,0,1,63.88,31ZM2.74,22.12c-1.59,4.62.58,11.46,4,12.61,1-1.18,2-2.53,4-1.5,2.35,1.21,4.44,2.44,2.8,5.61l5.56,3c-.37-1.78-.71-3.64-1.82-4.47-3.52-2.66-5.43-6.18-6.58-10.55-1.34,1.93-3,2-4.5.87-1.9-1.34-3.51-3-3.44-5.59.15-1.23-.09-2.77.57-3.59a3.25,3.25,0,0,1,3.21-.21A39.8,39.8,0,0,1,11,23.1c2.18-2.83,4-3.18,7.64-1.13,2.48,1.38,4.86,2.94,7.39,4.23,4.75,2.41,8.12,5.92,9.36,11.21,4-1.47,8,1.67,8,6.41,0,1.07-.58,2.78-1.33,3.08a4.39,4.39,0,0,1-3.6-.66,18.29,18.29,0,0,1-3-3.58L28.45,47.3l19.63,11c-.19-3.63-.52-7-.47-10.4,0-1.32.49-3.19,1.43-3.85,3.06-2.14,5.63-7.07,5.14-9.93L13.76,10.92c-1.8.58-3.11,1.43-4.26,1.25A5.7,5.7,0,0,1,6,10c-.63-1-.3-2.55-.39-3.86A3.67,3.67,0,0,0,3.77,8.33a85.93,85.93,0,0,0-1.63,9.11C2,19,2.51,20.55,2.74,22.12ZM97.91,50.48c-.87-.55-1.51-1-2.18-1.37C87,44.05,78.14,39.13,69.5,33.9a8.33,8.33,0,0,0-9.67.19c-6.28,4-9.78,10-11,17.16-.87,4.89.5,8.82,5.54,11.41,7.72,4,15.1,8.59,22.63,12.93.65.38,1.35.68,2.33,1.17,0-2.56-.15-4.78.07-7a7,7,0,0,1,1.44-2.88c.53-.78,1.53-1.3,1.9-2.12C85.72,58,90,52.5,97.91,50.48ZM57.66,26.65C43.11,18.24,29,10.07,14.88,2a3.44,3.44,0,0,0-2.37,0c-2.5.75-3.94,2.67-5,4.91-.35.74-1.11,1.91-.87,2.21A7.76,7.76,0,0,0,9.54,11.2c.35.15,1.27-.6,1.68-1.13C12.07,9,13,7.6,14.39,8.65c2.06,1.52,3.62.65,5.22-.53s2.71-1,4.33,0C30.69,12.13,37.55,16,44.36,20c.64.37,1.2.87,2,1.48L42,24.37c3.09,1.79,5.89,3.47,8.77,5a2.72,2.72,0,0,0,2.13,0C54.37,28.68,55.77,27.75,57.66,26.65ZM99.9,70.43,85.57,62.15c-.81,2-1.59,3.74-2.11,5.5a2.23,2.23,0,0,0,.51,2c4.13,2.53,8.33,4.92,12.25,7.2ZM83,70.21c-.61,5.22-.6,5.21,3.3,7.45,3.08,1.76,6.14,3.55,9.21,5.32,1.95,1.12,3.9,2.23,6.11,3.48V79.18c-2.08-.51-4-.6-5.46-1.4C91.76,75.47,87.55,72.88,83,70.21Zm6.57-13.5c4.26,2.48,7.88,4.71,11.63,6.67a2.92,2.92,0,0,0,2.67-.94c1-1.56,0-6-1.2-7.29-2.46-2.45-5.12-3.08-8-1.66C93.05,54.3,91.57,55.42,89.53,56.71Zm-73-21.53c1-1.81,1.6-3.81,2.91-5.12s3.5-2.24,5.48-3.44c-2.29-1.32-4.3-2.6-6.41-3.68-3.47-1.76-5.74-.32-5.72,3.54A12.86,12.86,0,0,0,16.55,35.18ZM86.07,61.39l15.63,9c-.31-2.5,1.17-4.79-1.19-6.25C96.82,61.9,93,59.81,89.12,57.55ZM31.19,44.23c2.35-.64,3.63-2.11,3.53-4.39A13.2,13.2,0,0,0,28,28.5c-2-1.2-3.24-.86-5.4.94C28.83,32.39,31.39,37.48,31.19,44.23ZM21.7,32.74c-.82,7.08.21,8.81,6.3,10.59C29.12,36.72,27.95,34.75,21.7,32.74Zm83.25,49.88c2.17-5.63,2.23-17,0-22.36Zm-1.06-18-1,0V86.06l.87,0A214.11,214.11,0,0,0,103.88,64.61ZM43.22,44a47.46,47.46,0,0,0-2.82-4.88,2.35,2.35,0,0,0-2.19-.65,2.46,2.46,0,0,0-1.06,2.12,18.55,18.55,0,0,0,2.1,4.72,2.48,2.48,0,0,0,2.15,1C42.11,46,42.51,45,43.22,44ZM10.11,22.89c-1.59-1.45-2.72-2.58-4-3.53-.22-.16-1.44.41-1.45.66,0,1.73.15,3.46.3,5.8Zm92,49.15c-2.89.25-3.77,1.92-4.22,3.81-.15.64.33,1.43.52,2.15.78-.21,2.06-.22,2.24-.67A41.38,41.38,0,0,0,102.11,72ZM29,38.64c0,1.5.06,3,0,4.5-.11,2.14-1,2.67-2.94,1.7-1.51-.76-3-1.67-4.43-2.51,2.29,3.46,5.26,4.76,7.15,3.49S30.82,41.6,29,38.64ZM13.23,35.8A14.45,14.45,0,0,0,10.06,34a2.69,2.69,0,0,0-2.1.85c-.22.22.16,1.45.61,1.82a19.18,19.18,0,0,0,3.05,1.75Zm13.94-1.35c-2.17-3.32-5.38-4.82-7.29-3.74s-2.2,4.93-.44,7.87c0-1.89-.08-3.48,0-5.06.13-2.1,1.12-2.69,3-1.75C23.93,32.5,25.31,33.39,27.17,34.46ZM44.72,21.21l-4.58-2.63-2,2.21C40.35,21.68,42.12,24.27,44.72,21.21ZM33.24,16.15c-1.74-.65-2.93-3.42-5.95-1.37C29.73,15.27,30.86,18,33.24,16.15ZM82.12,67.9c-1.79,3.62-1.32,9.08,0,9.25ZM18.34,11.19l3.81,1.15.5-3.53Z"/><path class="cls-4" d="M97.91,50.48C90,52.5,85.72,58,82.69,64.79c-.37.82-1.37,1.34-1.9,2.12a7,7,0,0,0-1.44,2.88c-.22,2.18-.07,4.41-.07,7-1-.49-1.68-.8-2.33-1.17-7.53-4.34-14.91-9-22.63-12.93-5-2.59-6.41-6.52-5.54-11.41,1.27-7.16,4.76-13.13,11-17.16a8.33,8.33,0,0,1,9.67-.19C78.14,39.13,87,44.05,95.72,49.1,96.39,49.49,97,49.93,97.91,50.48Z"/><path class="cls-4" d="M2.74,22.12C2.51,20.55,2,19,2.14,17.44A85.93,85.93,0,0,1,3.77,8.33,3.67,3.67,0,0,1,5.59,6.15C5.68,7.47,5.35,9.06,6,10A5.7,5.7,0,0,0,9.5,12.17c1.14.18,2.45-.67,4.26-1.25L54.19,34.15C54.68,37,52.1,41.94,49,44.08c-.94.66-1.42,2.53-1.43,3.85,0,3.38.28,6.77.47,10.4l-19.63-11,7.08-4.64a18.29,18.29,0,0,0,3,3.58,4.39,4.39,0,0,0,3.6.66c.75-.29,1.35-2,1.33-3.08-.07-4.74-4-7.88-8-6.41-1.24-5.29-4.61-8.8-9.36-11.21-2.53-1.28-4.91-2.85-7.39-4.23-3.68-2-5.46-1.7-7.64,1.13A39.8,39.8,0,0,0,6.5,18.32a3.25,3.25,0,0,0-3.21.21c-.66.82-.42,2.36-.57,3.59Z"/><path class="cls-4" d="M57.66,26.65c-1.89,1.1-3.29,2-4.79,2.72a2.72,2.72,0,0,1-2.13,0c-2.88-1.54-5.68-3.23-8.77-5l4.41-2.91c-.82-.61-1.38-1.11-2-1.48-6.81-4-13.67-7.84-20.43-11.89-1.62-1-2.85-1.05-4.33,0s-3.15,2-5.22.53C13,7.6,12.07,9,11.22,10.08c-.41.53-1.33,1.28-1.68,1.13A7.76,7.76,0,0,1,6.64,9.13c-.25-.3.51-1.47.87-2.21C8.57,4.67,10,2.75,12.51,2a3.44,3.44,0,0,1,2.37,0C29,10.07,43.11,18.24,57.66,26.65Z"/><path class="cls-4" d="M99.9,70.43l-3.69,6.42c-3.91-2.28-8.12-4.67-12.25-7.2a2.23,2.23,0,0,1-.51-2c.53-1.76,1.3-3.45,2.11-5.5Z"/><path class="cls-4" d="M83,70.21c4.59,2.67,8.8,5.26,13.16,7.57,1.51.8,3.38.89,5.46,1.4v7.29c-2.21-1.26-4.17-2.36-6.11-3.48-3.07-1.77-6.14-3.56-9.21-5.32C82.36,75.43,82.35,75.43,83,70.21Z"/><path class="cls-4" d="M89.53,56.71c2-1.29,3.52-2.41,5.15-3.22,2.84-1.42,5.5-.78,8,1.66,1.24,1.24,2.19,5.73,1.2,7.29a2.92,2.92,0,0,1-2.67.94C97.41,61.42,93.79,59.19,89.53,56.71Z"/><path class="cls-4" d="M16.55,35.18a12.86,12.86,0,0,1-3.74-8.69c0-3.86,2.25-5.31,5.72-3.54,2.11,1.07,4.12,2.35,6.41,3.68-2,1.2-4,2-5.48,3.44S17.53,33.37,16.55,35.18Z"/><path class="cls-4" d="M86.07,61.39l3-3.84c3.92,2.27,7.71,4.35,11.39,6.61,2.37,1.45.88,3.74,1.19,6.25Z"/><path class="cls-4" d="M2.73,22.12c-.07,2.61,1.54,4.25,3.44,5.59,1.54,1.09,3.16,1.07,4.5-.87,1.14,4.37,3.05,7.89,6.58,10.55,1.11.84,1.45,2.7,1.82,4.47l-5.56-3c1.64-3.17-.45-4.4-2.8-5.61-2-1-2.91.32-4,1.5-3.43-1.14-5.59-8-4-12.61Z"/><path class="cls-4" d="M31.19,44.23c.21-6.74-2.35-11.84-8.56-14.79,2.16-1.8,3.41-2.13,5.4-.94a13.2,13.2,0,0,1,6.7,11.34C34.81,42.12,33.53,43.59,31.19,44.23Z"/><path class="cls-4" d="M21.7,32.74c6.25,2,7.42,4,6.3,10.59C21.91,41.56,20.88,39.82,21.7,32.74Z"/><path class="cls-4" d="M104.95,82.63V60.27C107.18,65.67,107.12,77,104.95,82.63Z"/><path class="cls-4" d="M103.88,64.61a214.11,214.11,0,0,1-.18,21.47l-.87,0V64.57Z"/><path class="cls-4" d="M43.22,44c-.71,1-1.11,2-1.82,2.29a2.48,2.48,0,0,1-2.15-1,18.55,18.55,0,0,1-2.1-4.72,2.46,2.46,0,0,1,1.06-2.12,2.35,2.35,0,0,1,2.19.65A47.46,47.46,0,0,1,43.22,44Z"/><path class="cls-4" d="M10.11,22.89,5,25.81c-.15-2.33-.32-4.07-.3-5.8,0-.24,1.23-.82,1.45-.66C7.4,20.3,8.52,21.43,10.11,22.89Z"/><path class="cls-4" d="M102.11,72a41.38,41.38,0,0,1-1.45,5.28c-.18.45-1.47.46-2.24.67-.19-.72-.67-1.51-.52-2.15C98.34,74,99.22,72.29,102.11,72Z"/><path class="cls-4" d="M29,38.64c1.79,3,1.53,6-.24,7.17s-4.86,0-7.15-3.49c1.47.84,2.92,1.75,4.43,2.51,1.93,1,2.83.45,2.94-1.7C29.09,41.64,29,40.14,29,38.64Z"/><path class="cls-4" d="M13.23,35.8l-1.61,2.65A19.18,19.18,0,0,1,8.57,36.7c-.45-.37-.83-1.6-.61-1.82a2.69,2.69,0,0,1,2.1-.85A14.45,14.45,0,0,1,13.23,35.8Z"/><path class="cls-4" d="M27.17,34.46c-1.86-1.07-3.25-2-4.71-2.69-1.88-.93-2.87-.35-3,1.75-.1,1.58,0,3.17,0,5.06-1.76-2.94-1.44-6.8.44-7.87S25,31.14,27.17,34.46Z"/><path class="cls-4" d="M44.72,21.21c-2.6,3.06-4.37.47-6.54-.42l2-2.21Z"/><path class="cls-4" d="M33.24,16.15c-2.38,1.82-3.51-.89-5.95-1.37C30.32,12.73,31.5,15.51,33.24,16.15Z"/><path class="cls-4" d="M82.12,67.9v9.25C80.8,77,80.33,71.51,82.12,67.9Z"/><path class="cls-4" d="M18.34,11.19,22.64,8.8l-.5,3.53Z"/></g><text class="cls-5" transform="translate(120.92 59.88)">DRIVE IN DOOR <tspan x="0" y="24">L</tspan><tspan class="cls-6" x="12.34" y="24">A</tspan><tspan class="cls-7" x="26.14" y="24">T</tspan><tspan class="cls-8" x="38.94" y="24">CH </tspan><tspan class="cls-9" x="74.16" y="24">A</tspan><tspan class="cls-10" x="87.86" y="24">V</tspan><tspan x="101.04" y="24">AILABLE</tspan></text></g></g></svg>